<svg width="400" height="300" viewBox="0 0 400 300" xmlns="http://www.w3.org/2000/svg">
  <!-- Fondo y elementos decorativos -->
  <rect x="20" y="20" width="360" height="260" rx="10" fill="#f5f5f5" opacity="0.3"/>
  
  <!-- Escritorio -->
  <rect x="50" y="180" width="300" height="10" rx="2" fill="#8b5e3c"/>
  <rect x="60" y="190" width="10" height="80" fill="#8b5e3c"/>
  <rect x="330" y="190" width="10" height="80" fill="#8b5e3c"/>
  
  <!-- Laptop -->
  <rect x="150" y="140" width="120" height="80" rx="5" fill="#333"/>
  <rect x="155" y="145" width="110" height="65" rx="2" fill="#f0f0f0"/>
  <rect x="130" y="220" width="160" height="5" rx="2" fill="#333"/>
  
  <!-- Persona -->
  <!-- Cabeza -->
  <circle cx="210" cy="100" r="25" fill="#e0ac69"/>
  <!-- Cabello -->
  <path d="M190 85 Q210 65 230 85 L230 100 Q220 110 200 110 Q180 110 190 100 Z" fill="#4a2703"/>
  <!-- Cuerpo -->
  <path d="M190 125 L180 200 L240 200 L230 125 Z" fill="#3f51b5"/>
  <!-- Brazos -->
  <path d="M190 130 L160 170 L170 180 L200 140 Z" fill="#3f51b5"/>
  <path d="M230 130 L260 170 L250 180 L220 140 Z" fill="#3f51b5"/>
  
  <!-- Silla -->
  <rect x="180" y="200" width="60" height="10" rx="2" fill="#333"/>
  <rect x="190" y="210" width="40" height="60" rx="5" fill="#333"/>
  <rect x="180" y="210" width="10" height="40" fill="#333"/>
  <rect x="230" y="210" width="10" height="40" fill="#333"/>
  
  <!-- Elementos decorativos -->
  <!-- Planta -->
  <rect x="50" y="100" width="20" height="30" fill="#8b5e3c"/>
  <circle cx="60" cy="90" r="15" fill="#4caf50"/>
  <circle cx="70" cy="80" r="10" fill="#4caf50"/>
  
  <!-- Estantería -->
  <rect x="30" y="40" width="60" height="60" fill="#8b5e3c"/>
  <rect x="35" y="50" width="50" height="2" fill="#6d4c41"/>
  <rect x="35" y="70" width="50" height="2" fill="#6d4c41"/>
  <rect x="35" y="90" width="50" height="2" fill="#6d4c41"/>
  
  <!-- Libros en estantería -->
  <rect x="40" y="52" width="10" height="18" fill="#f44336"/>
  <rect x="50" y="52" width="8" height="18" fill="#2196f3"/>
  <rect x="58" y="52" width="12" height="18" fill="#4caf50"/>
  <rect x="40" y="72" width="15" height="18" fill="#9c27b0"/>
  <rect x="55" y="72" width="10" height="18" fill="#ff9800"/>
</svg>